<?xml version="1.0" encoding="UTF-8"?>
<svg id="Layer_2" data-name="Layer 2" xmlns="http://www.w3.org/2000/svg" viewBox="0 0 1080 1080">
  <defs>
    <style>
      .cls-1 {
        fill: none;
      }

      .cls-1, .cls-2 {
        stroke-width: 0px;
      }
    </style>
  </defs>
  <g id="Volleyball">
    <rect class="cls-1" width="1080" height="1080"/>
    <g>
      <polygon class="cls-2" points="148.25 592.33 148.24 592.33 149.06 593.11 148.25 592.33"/>
      <circle class="cls-2" cx="589.92" cy="287.39" r="79.48" transform="translate(-30.44 501.31) rotate(-45)"/>
      <path class="cls-2" d="M876.93,422.62c-37.12,0-67.32,30.2-67.32,67.32s30.2,67.32,67.32,67.32,67.32-30.2,67.32-67.32-30.2-67.32-67.32-67.32ZM876.93,531.68c-23.01,0-41.73-18.72-41.73-41.73s18.72-41.73,41.73-41.73,41.73,18.72,41.73,41.73-18.72,41.73-41.73,41.73Z"/>
      <polygon class="cls-2" points="609.6 871.6 609.6 871.59 608.47 871.6 609.6 871.6"/>
      <path class="cls-2" d="M382.54,399.34l-50.8,58.74c-13.99,16.17-21.73,36.82-21.84,58.2l-.51,105.47-173.64,250.34h128.53l155.19-223.65,105.81,54.08c71.82,37.29,84.18,77.68,84.18,150.54,0,8.5.14,9.01.14,18.53l109.61-.3-.29-40.05c-.93-93.52-55.68-178.12-140.61-217.29l-169.31-85.34.55-35.37,165.9,84.32,23.56-47.09,121.07,79.41,150.25-3.95-341.5-229.33c-43.82-31.74-110.71-17.79-146.29,22.73Z"/>
    </g>
  </g>
</svg>