<?xml version="1.0" encoding="UTF-8"?>
<svg id="Layer_2" data-name="Layer 2" xmlns="http://www.w3.org/2000/svg" viewBox="0 0 1080 1080">
  <defs>
    <style>
      .cls-1 {
        fill: none;
      }

      .cls-1, .cls-2 {
        stroke-width: 0px;
      }
    </style>
  </defs>
  <g id="Sport_climbing" data-name="Sport climbing">
    <rect class="cls-1" width="1080" height="1080"/>
    <g>
      <polygon class="cls-2" points="758.09 745.81 758.09 745.8 757.14 746.41 758.09 745.81"/>
      <circle class="cls-2" cx="426.66" cy="256.49" r="79.48"/>
      <path class="cls-2" d="M826.77,653.67c-.16-.24-.32-.48-.47-.72V46.75h-26.73v571.19c-54.04-61.08-135.7-103.67-223.87-73l-152.57,52.62-.71-36.72,154.92-54.44v-104.98l193.04-123.81.41-109.82-451.03,275.67c-42.79,24.56-67.7,70.59-66.48,119.91v125.64l96.39,36.56v-183.84l34.56-31.63v127.35c4.63,78.13,54.7,146.62,128.31,174.52l287.02,108.78v112.5h26.73v-373.42l.47-6.15ZM492.52,682.66l92.07-33.92c68.2-24.71,124.29,20.06,163.43,81.52,4.56,7.17,4.96,7.52,10.08,15.56l41.47-26.1v76.07l-307.04-113.12Z"/>
    </g>
  </g>
</svg>