<?xml version="1.0" encoding="UTF-8"?>
<svg id="Layer_2" data-name="Layer 2" xmlns="http://www.w3.org/2000/svg" viewBox="0 0 1080 1080">
  <defs>
    <style>
      .cls-1 {
        fill: none;
      }

      .cls-1, .cls-2 {
        stroke-width: 0px;
      }
    </style>
  </defs>
  <g id="Handall">
    <rect class="cls-1" width="1080" height="1080"/>
    <g>
      <circle class="cls-2" cx="656.64" cy="268" r="79.48" transform="translate(2.82 542.81) rotate(-45)"/>
      <polygon class="cls-2" points="800.44 673.87 801.33 673.16 801.33 673.16 800.44 673.87"/>
      <path class="cls-2" d="M362.54,367.53l59.36-108.41c10.48,24.46,35.01,41.42,63.21,40.87,37.11-.73,66.72-31.51,65.99-68.63-.73-37.12-31.51-66.72-68.63-65.99-36.63.72-65.93,30.72-65.99,67.19h-83.28l-46.91,86.28c-34.38,61.36,5.27,140.3,92.59,140.3h222.55l-40.67,33.56H41.34l68.48,104.16h385.64v32.89c1.8,85.67-2.41,124.29-57.74,171.69-6.45,5.53-6.41,5.28-34.66,29.48l71.2,83.73,51.25-44.28c58.39-51.04,85.26-112.61,79.14-188.1v-84.42l139.97-138.88h194.2l99.84-91.43H362.54ZM482.98,190.95c23.01-.45,42.09,17.9,42.54,40.91.45,23.01-17.9,42.09-40.91,42.54-23.01.45-42.09-17.9-42.54-40.91-.45-23.01,17.9-42.09,40.91-42.54Z"/>
    </g>
  </g>
</svg>