<?xml version="1.0" encoding="UTF-8"?>
<svg id="Layer_2" data-name="Layer 2" xmlns="http://www.w3.org/2000/svg" viewBox="0 0 1080 1080">
  <defs>
    <style>
      .cls-1 {
        fill: none;
      }

      .cls-1, .cls-2 {
        stroke-width: 0px;
      }
    </style>
  </defs>
  <g id="Rugby">
    <rect class="cls-1" width="1080" height="1080"/>
    <g>
      <circle class="cls-2" cx="660.94" cy="245.46" r="77.18"/>
      <path class="cls-2" d="M751.49,508.84c22.21-31.04,23.74-68.07,13.09-75.74-10.64-7.67-45.25,5.81-67.45,36.85-22.21,31.04-23.95,67.16-13.09,75.74s45.25-5.81,67.45-36.85Z"/>
      <path class="cls-2" d="M712.94,344.37l-486.21-.11-.8,93.18,335.15-.17-.35.38-.5.54-29.61,32.46-98.85-.38-143.46,182.25,85.47,54.55,129.8-172.06h42.19l-284.26,376.71h130.48l234.27-308.81,33.26-44.24c-14.46-23.35-7.71-65.9,18.39-103.31,30.58-43.84,76.27-64.24,101.85-45.47,25.58,18.77,21.52,69.71-9.06,113.55-23.83,34.16-56.82,54.07-82.33,52.32l-41.45,54.68h100.33l67.18-89.44c71.17-83.91,51.84-196.64-101.48-196.64Z"/>
    </g>
  </g>
</svg>