<?xml version="1.0" encoding="UTF-8"?>
<svg id="Layer_2" data-name="Layer 2" xmlns="http://www.w3.org/2000/svg" viewBox="0 0 1080 1080">
  <defs>
    <style>
      .cls-1 {
        fill: none;
      }

      .cls-1, .cls-2, .cls-3 {
        stroke-width: 0px;
      }

      .cls-3 {
        fill: #fff;
      }
    </style>
  </defs>
  <g id="Rowing">
    <rect class="cls-1" width="1080" height="1080"/>
    <g>
      <circle class="cls-2" cx="255.52" cy="261.93" r="79.48"/>
      <polygon class="cls-2" points="172.57 482.19 172.66 482.36 330.81 482.36 328.19 477.38 330.59 482.19 172.57 482.19"/>
      <path class="cls-2" d="M342.42,363.15H42.8l76.03,151.87H38.84v38.75h7.72c27.72-.77,56.64-5.22,86.08-11.15l101.61,202.97-26.34,12.46,54.38,114.97c10.12,21.38,35.65,30.52,57.04,20.41h0c21.38-10.11,30.52-35.65,20.41-57.04l-54.38-114.97-25.97,12.29L116.86,448.64h196.16l.09.17h.79l14.29,28.58,2.62,4.97h-158.16l23.17,46.18c20.54-4.78,41.11-9.52,61.48-13.52h0c31.37-6.16,62.28-10.54,91.93-10.54,66.68,0,102.95,28.88,186.09,35.99l-34.35-73.98c-31.55-62.55-91.33-102.96-158.54-103.34Z"/>
      <polygon class="cls-3" points="313.9 448.8 313.11 448.8 328.19 477.38 313.9 448.8"/>
      <g>
        <path class="cls-2" d="M1021.39,553.77v-.53c0,.18,0,.35,0,.53h0Z"/>
        <circle class="cls-2" cx="684.52" cy="261.93" r="79.48"/>
      </g>
      <path class="cls-2" d="M958.43,515.02l-22.54-48.53c-31.55-62.55-91.33-102.96-158.54-103.34h-299.62l190.9,381.31-26.14,11.68,54.38,114.97c10.12,21.38,35.65,30.52,57.04,20.41h0c21.38-10.11,30.52-35.65,20.41-57.04l-54.38-114.97-26.17,13.07-141.3-283.76h195.94l2.44,4.89h.19l14.72,28.67h-158.59l23.22,46.27c52.3-12.17,104.77-24.15,153.79-24.15,45.21,0,76.44,13.27,117.77,24.04,39.44,12.06,82.8,24.73,139.23,24.73v-38.22h-82.73Z"/>
    </g>
  </g>
</svg>