<?xml version="1.0" encoding="UTF-8"?>
<svg id="Layer_2" data-name="Layer 2" xmlns="http://www.w3.org/2000/svg" viewBox="0 0 1080 1080">
  <defs>
    <style>
      .cls-1 {
        fill: none;
      }

      .cls-1, .cls-2 {
        stroke-width: 0px;
      }
    </style>
  </defs>
  <g id="Athletics">
    <rect class="cls-1" width="1080" height="1080"/>
    <g>
      <g>
        <polygon class="cls-2" points="657.45 470.06 658.48 470.55 657.82 469.84 657.45 470.06"/>
        <path class="cls-2" d="M768.98,429.58c43.57,0,79.01-35.45,79.01-79.01s-35.45-79.02-79.01-79.02-79.02,35.45-79.02,79.02,35.45,79.01,79.02,79.01Z"/>
      </g>
      <path class="cls-2" d="M658.62,552.32c27.22,25.05,34.61,30.95,83.03,30.95l245.14-.65-91.93-98.41h-147.94l-135.75-166.84c-34.19-40.58-84.79-49.14-129.08-19.91l-120.53,79.55v117.19l168.06-118.67,88.8,108.68h-41.84l-52.22-63.54-106.97,74.3c-35.12,26.2-55.81,73.15-55.81,116.97v11.86l-268.35,184.65h157l260.79-180.04-59.31-76.09h38.88l67.22,83.34-161.45,113.73h142.34l87.01-66.29c32.15-24.49,38.26-70.45,13.62-102.49-11.76-15.29-20.35-26.41-21.87-28.3h41.19ZM657.82,469.84l.65.71-1.03-.48.38-.23Z"/>
    </g>
  </g>
</svg>