<?xml version="1.0" encoding="UTF-8"?>
<svg id="Layer_2" data-name="Layer 2" xmlns="http://www.w3.org/2000/svg" viewBox="0 0 1080 1080">
  <defs>
    <style>
      .cls-1 {
        fill: none;
      }

      .cls-1, .cls-2 {
        stroke-width: 0px;
      }
    </style>
  </defs>
  <g id="Artistic_swimming" data-name="Artistic swimming">
    <rect class="cls-1" width="1080" height="1080"/>
    <g>
      <g>
        <path class="cls-2" d="M294.19,304.31c27.43,33.85,77.29,39.07,111.14,11.64,33.85-27.43,39.07-77.29,11.64-111.14-27.43-33.85-77.29-39.07-111.14-11.64-33.85,27.43-39.07,77.29-11.64,111.14Z"/>
        <g>
          <path class="cls-2" d="M1025.16,445.84l.51-73.97h-326.53l-241.19-150.82v113.25s132.11,80.15,212.3,129.08c84.38-6.6,137.25-47.97,228.87-47.97,43.28,0,81.39,16.34,126.04,30.42Z"/>
          <path class="cls-2" d="M608.06,461.16l-146.15-88.96-109.62-.33L54.76,194.83l-.43,113.12,204.68,121.63c11.07,6.25,22.54,11.67,34.3,16.27,41.71-15.53,68.77-34.43,127.42-34.43,64.84,0,108.97,38.43,187.34,49.75Z"/>
        </g>
      </g>
      <path class="cls-2" d="M647.41,304.31c27.43,33.85,77.29,39.07,111.14,11.64,33.85-27.43,39.07-77.29,11.64-111.14-27.43-33.85-77.29-39.07-111.14-11.64-33.85,27.43-39.07,77.29-11.64,111.14Z"/>
      <g>
        <path class="cls-2" d="M324.51,691.16h-85.67v181.07c26.87-14.11,50.09-28.14,85.67-32.45v-148.62Z"/>
        <path class="cls-2" d="M436.53,648.87h-85.67v189.61c31.12.85,57.59,13.63,85.67,28.18v-217.79Z"/>
        <path class="cls-2" d="M708.03,691.16h-85.67v213.27c30.57-7.06,57.84-19.46,85.67-31.17v-182.09Z"/>
        <path class="cls-2" d="M820.06,648.87h-85.67v213.79c26.09-9.77,53.67-17.37,85.67-18.21v-195.58Z"/>
      </g>
    </g>
  </g>
</svg>