<?xml version="1.0" encoding="UTF-8"?>
<svg id="Layer_2" data-name="Layer 2" xmlns="http://www.w3.org/2000/svg" viewBox="0 0 1080 1080">
  <defs>
    <style>
      .cls-1 {
        fill: none;
      }

      .cls-1, .cls-2 {
        stroke-width: 0px;
      }
    </style>
  </defs>
  <g id="Modern_pentathlon" data-name="Modern pentathlon">
    <rect class="cls-1" width="1080" height="1080"/>
    <g>
      <path class="cls-2" d="M193.67,173.14c21.68,7.13,45.11-4.7,52.24-26.38,7.13-21.68-4.7-45.11-26.38-52.24-21.68-7.13-45.11,4.7-52.24,26.38-7.13,21.68,4.7,45.11,26.38,52.24Z"/>
      <path class="cls-2" d="M251.56,300.07l-96.82-.03,5.89-17.39h79.73l17.2-52.62,107.63-28-2.43,7.6,10.59,1.7,11.15-34.91h137.55l4.42-10.15h-138.73l9.86-30.89-10.59-1.7-4.56,14.27-166.51,39.36c-36.18,8.55-65.4,35.13-77.34,70.33l-16.96,50.01-44.5,45.29,266.96.1c-19.5-29.89-50.95-52.97-92.55-52.97Z"/>
      <path class="cls-2" d="M807.38,829.71c-22.69,0-41.15,18.46-41.15,41.15s18.46,41.15,41.15,41.15,41.15-18.46,41.15-41.15-18.46-41.15-41.15-41.15Z"/>
      <path class="cls-2" d="M874.93,927.92c28.19,10.06,59.77,24.3,93.27,25.84,3.92-.09,7.63-.5,11.24-1.13l23.42-24.71h-127.93Z"/>
      <path class="cls-2" d="M628.66,829.03l-43.75,24.19.19,61.25,78.58-39.63,8.66,12.99-69.44,36.4c36.58,2.07,66.28,26.92,116.71,28,22.59,0,45.02-14.98,65.35-23.7l-67.26-77.87c-24.62-28.62-47.35-41.18-89.05-21.62Z"/>
      <path class="cls-2" d="M863.21,213.51c22.69,0,41.14-18.46,41.14-41.14s-18.46-41.15-41.14-41.15-41.15,18.46-41.15,41.15,18.46,41.14,41.15,41.14Z"/>
      <path class="cls-2" d="M842.8,288.06l127.65-.34-47.87-51.24h-77.04l-66.23-82.76c-17.81-21.13-48.61-25.59-71.67-10.37l-62.76,41.42v56.91l87.51-61.8,46.24,56.59h-21.79l-27.2-33.09-55.7,38.69c-18.29,13.64-29.06,38.09-29.06,60.91v77.21l154.68-108.25c14.17,13.04,18.02,16.12,43.24,16.12Z"/>
      <path class="cls-2" d="M444.11,421.76c-15.76,16.5-15.16,42.75,1.34,58.51,16.5,15.76,42.75,15.16,58.51-1.34,15.76-16.5,15.16-42.75-1.34-58.51-16.5-15.76-42.75-15.16-58.51,1.34Z"/>
      <path class="cls-2" d="M623.14,579.16l-46.84.42c12.25-13.9,23.5-26.51,35.74-40.23,18.46-20.7,38.77-34.9,60.35-42.2,17.15-5.8,35.23-7.31,53.73-4.48,4.99.76,9.74,1.81,14.22,3.02v172.33c0,8.7-3.61,14.85-9.91,16.88-6.06,1.95-14.95.05-21.17-8.6l-37.37-49.29h-16.66l-.04-.45-.7.53,43.53,57.41c6.93,9.59,17.35,15.04,27.76,15.04,3.01,0,6.01-.45,8.93-1.4,12.25-3.95,19.56-15.21,19.56-30.13v-167.74c8.64,3.36,15.56,7.01,20.15,9.7v-15.92c-10.64-5.49-26.47-12.05-45.59-15.06-20.8-3.28-41.17-1.65-60.53,4.84-24.03,8.05-46.45,23.61-66.64,46.24-13.43,15.06-25.67,28.78-39.35,44.33l-22.25-33.48c-34.31-59.02-120.02-38.47-120.02,29.13l-.24,105.23h-121.91v13.04h134.79c25.08,0,49.42-8.49,69.05-24.09l22.29-26.35-35.27-44.95-.04-27.79,49,61.63h117.01l-31.57-47.61Z"/>
      <polygon class="cls-2" points="537.13 626.77 538.08 627.26 537.7 626.77 537.13 626.77"/>
      <path class="cls-2" d="M141.45,792.38c0,22.69,18.46,41.15,41.15,41.15s41.14-18.46,41.14-41.15-18.46-41.15-41.14-41.15-41.15,18.46-41.15,41.15Z"/>
      <path class="cls-2" d="M225.37,843.94l-30.72.06c-78.72,0-92.51,60.75-93.18,63.94l22.45,23.27,51.28,52.75c-.07.06-.13.12-.2.18l3.32,3.42h164.5l-75.67-77.48h-46.65l-17.5-18h173.83l32.13-46.33h98.98v-15.1H225.37v13.27Z"/>
    </g>
  </g>
</svg>