<?xml version="1.0" encoding="UTF-8"?>
<svg id="Layer_2" data-name="Layer 2" xmlns="http://www.w3.org/2000/svg" viewBox="0 0 1080 1080">
  <defs>
    <style>
      .cls-1 {
        fill: none;
      }

      .cls-1, .cls-2 {
        stroke-width: 0px;
      }
    </style>
  </defs>
  <g id="Canoe_sprint" data-name="Canoe sprint">
    <rect class="cls-1" width="1080" height="1080"/>
    <g>
      <circle class="cls-2" cx="543.09" cy="455.84" r="79.48" transform="translate(-163.26 517.53) rotate(-45)"/>
      <path class="cls-2" d="M73.44,771.96v38.75s51.09,0,51.09,0c280.45-4.33,258.35-37.84,413.16-34.14,122.15,2.92,140.21,27.3,351.43,34.14h117.43s0-38.75,0-38.75h-334.79s214.32-330.68,214.32-330.68c16.74,3.39,34.6-3.48,44.45-18.68l69.17-106.73-71.89-46.59-69.17,106.73c-10.63,16.41-8.6,37.36,3.63,51.41l-307.78,137.63c-83.58,34.49-101.48,46.13-144.98,109.39l-62,97.53H73.44ZM531.47,717.89l29.32-49.42,153.78-64.61,46.66-19.61-82.52,127.31-37.77,57.92h-40.95s74.79-111.88,74.79-111.88l-143.33,60.3Z"/>
    </g>
  </g>
</svg>