<?xml version="1.0" encoding="UTF-8"?>
<svg id="Layer_2" data-name="Layer 2" xmlns="http://www.w3.org/2000/svg" viewBox="0 0 1080 1080">
  <defs>
    <style>
      .cls-1 {
        fill: none;
      }

      .cls-1, .cls-2 {
        stroke-width: 0px;
      }
    </style>
  </defs>
  <g id="Equestrian">
    <rect class="cls-1" width="1080" height="1080"/>
    <g>
      <path class="cls-2" d="M511.41,248.78c30.27-31.69,29.12-82.1-2.57-112.37-31.69-30.27-82.1-29.12-112.37,2.57-30.27,31.69-29.12,82.1,2.57,112.37,31.69,30.27,82.1,29.12,112.37-2.57Z"/>
      <path class="cls-2" d="M943.22,248.94c-39.95-6.29-79.06-3.17-116.24,9.29-46.15,15.45-89.21,45.33-127.98,88.8-25.79,28.91-49.29,55.27-75.57,85.14l-42.72-64.3c-65.9-113.35-230.49-73.89-230.49,55.93l-.46,202.27-300.54,102.07v28.23l315.19-107.05,119.69,44.12c56.17,18,77.55,64.79,77.55,106.31l-.29,99.95,112.03,65.87.2-162.85c.11-59.14-14.14-157.42-110.54-195.56l-154.01-59.06-.08-36.9,82.02,29.6,47.23-54.64,20.43,26.46-34.93,42.08,24.38,9.89,27.02-31.87h225.8l-60.63-91.43-89.95.81c23.53-26.69,45.13-50.9,68.63-77.25,35.45-39.75,74.45-67.02,115.89-81.04,32.94-11.14,67.66-14.04,103.19-8.6,9.58,1.47,18.71,3.47,27.31,5.81v330.95c0,16.71-6.94,28.53-19.03,32.43-11.63,3.75-28.71.1-40.66-16.51l-71.77-94.67h-31.99l-.07-.86-1.35,1.03,83.59,110.25c13.31,18.41,33.33,28.88,53.31,28.88,5.77,0,11.54-.87,17.15-2.68,23.52-7.58,37.56-29.21,37.56-57.87v-322.14c16.6,6.45,29.87,13.45,38.7,18.64v-30.57c-20.43-10.54-50.83-23.15-87.56-28.93Z"/>
    </g>
  </g>
</svg>