<?xml version="1.0" encoding="UTF-8"?>
<svg id="Layer_2" data-name="Layer 2" xmlns="http://www.w3.org/2000/svg" viewBox="0 0 1080 1080">
  <defs>
    <style>
      .cls-1 {
        fill: none;
      }

      .cls-1, .cls-2 {
        stroke-width: 0px;
      }
    </style>
  </defs>
  <g id="Basketball_3_3" data-name="Basketball 3×3">
    <rect class="cls-1" width="1080" height="1080"/>
    <g>
      <g>
        <polygon class="cls-2" points="970.15 57.47 970.15 232.96 821.01 232.96 821.01 261.55 970.15 261.55 970.15 310.51 998.74 310.51 998.74 57.47 970.15 57.47"/>
        <path class="cls-2" d="M587.32,425.75c36.6,23.64,85.61,13.09,109.24-23.51,23.64-36.6,13.09-85.61-23.51-109.24-36.6-23.64-85.61-13.09-109.24,23.51-23.64,36.6-13.09,85.61,23.51,109.25Z"/>
      </g>
      <path class="cls-2" d="M615.23,604.9l36.94-34.82,171.59,63.85,115.92-45.14-427.54-164.42-54.72-133.66c11.61,5.24,23.94,7.76,36.17,7.75,28.89-.07,57.2-14.29,74.01-40.32,26.38-40.85,14.61-95.55-26.24-121.94-14.78-9.54-31.36-14.07-47.76-14.06-28.89.07-57.2,14.29-74.01,40.32-9.56,14.8-14.08,31.41-14.06,47.84h-84.82l74.14,180.47c29.76,85.18,58.15,107.29,117.29,127.2l63.5,23.63-21.47,23.3-88.85-31.35L81.26,899.81l136.85,3.31,216.76-206.54,155.6.39c85.47,6,128.19,27.85,170.36,87.26,4.92,6.93,4.67,6.86,53.48,70.06l81.52-60.38-66.71-87.93c-45.52-62.8-126.85-101.1-213.9-101.1ZM449.84,182c9.94-15.39,26.67-23.79,43.75-23.84v-.04c9.69,0,19.49,2.69,28.22,8.33,24.17,15.61,31.13,47.97,15.52,72.14-9.94,15.39-26.67,23.79-43.75,23.84v.04c-9.69,0-19.49-2.69-28.22-8.33-24.17-15.61-31.13-47.97-15.52-72.14Z"/>
      <g>
        <path class="cls-2" d="M459.54,937.05c6.74,7.37,10.11,17.53,10.11,30.47,0,10.79-2.97,20.36-8.9,28.72-5.93,8.36-14.38,14.83-25.35,19.42-10.97,4.58-23.73,6.88-38.29,6.88-22.47,0-40.22-5.53-53.26-16.58-13.04-11.06-19.55-26.56-19.55-46.52h38.56c.18,10.43,3.59,18.47,10.25,24.13,6.65,5.66,15.28,8.49,25.89,8.49,8.99,0,16.45-2.43,22.38-7.28,5.93-4.85,8.9-11.41,8.9-19.69,0-7.55-2.79-13.48-8.36-17.8-5.57-4.31-13.75-6.47-24.54-6.47h-18.61v-31.01h16.45c10.07,0,17.8-2.29,23.19-6.88,5.39-4.58,8.09-10.74,8.09-18.47s-2.74-13.12-8.22-17.26c-5.49-4.13-12.45-6.2-20.9-6.2-9.17,0-16.72,2.65-22.65,7.95-5.93,5.3-8.99,12.27-9.17,20.9h-38.02c.18-11.68,3.24-22.02,9.17-31.01,5.93-8.99,14.2-15.95,24.81-20.9,10.6-4.94,22.74-7.42,36.4-7.42,21.21,0,37.84,4.58,49.89,13.75,12.04,9.17,18.07,21.57,18.07,37.21,0,10.97-3.01,19.95-9.03,26.97-6.03,7.01-13.98,11.78-23.86,14.29,10.96,2.16,19.82,6.92,26.56,14.29Z"/>
        <path class="cls-2" d="M469.11,1000.23l51.5-70.65-49.08-67.95h43.42l28.58,40.99,29.39-40.99h40.99l-48.81,67.95,51.5,70.65h-43.41l-31.82-43.41-31.55,43.41h-40.72Z"/>
        <path class="cls-2" d="M746.45,937.05c6.74,7.37,10.11,17.53,10.11,30.47,0,10.79-2.97,20.36-8.9,28.72-5.93,8.36-14.38,14.83-25.35,19.42-10.97,4.58-23.73,6.88-38.29,6.88-22.47,0-40.22-5.53-53.26-16.58-13.04-11.06-19.55-26.56-19.55-46.52h38.56c.18,10.43,3.59,18.47,10.25,24.13,6.65,5.66,15.28,8.49,25.89,8.49,8.99,0,16.45-2.43,22.38-7.28,5.93-4.85,8.9-11.41,8.9-19.69,0-7.55-2.79-13.48-8.36-17.8-5.57-4.31-13.75-6.47-24.54-6.47h-18.61v-31.01h16.45c10.07,0,17.8-2.29,23.19-6.88,5.39-4.58,8.09-10.74,8.09-18.47s-2.74-13.12-8.22-17.26c-5.49-4.13-12.45-6.2-20.9-6.2-9.17,0-16.72,2.65-22.65,7.95-5.93,5.3-8.99,12.27-9.17,20.9h-38.02c.18-11.68,3.24-22.02,9.17-31.01,5.93-8.99,14.2-15.95,24.81-20.9,10.6-4.94,22.74-7.42,36.4-7.42,21.21,0,37.84,4.58,49.89,13.75,12.04,9.17,18.07,21.57,18.07,37.21,0,10.97-3.01,19.95-9.03,26.97-6.03,7.01-13.98,11.78-23.86,14.29,10.96,2.16,19.82,6.92,26.56,14.29Z"/>
      </g>
    </g>
  </g>
</svg>