<?xml version="1.0" encoding="UTF-8"?>
<svg id="Layer_2" data-name="Layer 2" xmlns="http://www.w3.org/2000/svg" viewBox="0 0 1080 1080">
  <defs>
    <style>
      .cls-1 {
        fill: none;
      }

      .cls-1, .cls-2 {
        stroke-width: 0px;
      }
    </style>
  </defs>
  <g id="Diving">
    <rect class="cls-1" width="1080" height="1080"/>
    <g>
      <circle class="cls-2" cx="657.68" cy="545.72" r="79.48"/>
      <path class="cls-2" d="M643.16,151.1l-69.57-33.65v192.37l-34.56,38.22V100.73l-1.13-.55h0c-61.85,0-112,50.14-112,112v623.44l110.79-118.55,1.95-198.13,152.77-186.15c50.19-61.15,25.66-153.5-48.26-181.69Z"/>
      <path class="cls-2" d="M966.45,926.27c-27.68-13.36-56.3-27.17-87.28-27.17-36.66,0-66.3,14.97-94.96,29.45-24.82,12.54-48.28,24.38-73.68,24.53-29.89-.14-57.98-13.7-85.15-26.81-27.68-13.36-56.3-27.17-87.28-27.17-36.66,0-66.3,14.97-94.96,29.45-24.82,12.54-48.28,24.38-73.68,24.53-29.89-.14-57.98-13.7-85.15-26.81-27.68-13.36-56.3-27.17-87.28-27.17-36.66,0-66.3,14.97-94.96,29.45-24.97,12.62-48.56,24.53-74.14,24.53v26.73c31.95,0,59.53-13.93,86.2-27.41,27.06-13.67,52.61-26.58,82.91-26.58,24.87,0,49.54,11.91,75.67,24.51,29.76,14.36,60.53,29.2,96.3,29.46h0c.15.01.31,0,.46,0,.16,0,.32,0,.48,0h0c31.55-.28,58.85-14.07,85.25-27.41,27.06-13.67,52.61-26.58,82.91-26.58,24.87,0,49.54,11.91,75.66,24.51,29.76,14.36,60.53,29.2,96.3,29.46h0c.15.01.31,0,.46,0,.16,0,.32,0,.48,0h0c31.55-.28,58.85-14.07,85.25-27.41,27.06-13.67,52.61-26.58,82.91-26.58,24.87,0,49.54,11.91,75.67,24.51,30.02,14.49,61.07,29.47,97.24,29.47v-26.73c-30.06,0-58.31-13.63-85.63-26.81Z"/>
    </g>
  </g>
</svg>