<?xml version="1.0" encoding="UTF-8"?>
<svg id="Layer_2" data-name="Layer 2" xmlns="http://www.w3.org/2000/svg" viewBox="0 0 1080 1080">
  <defs>
    <style>
      .cls-1 {
        fill: none;
      }

      .cls-1, .cls-2 {
        stroke-width: 0px;
      }
    </style>
  </defs>
  <g id="Artistic_gymnastics" data-name="Artistic gymnastics">
    <rect class="cls-1" width="1080" height="1080"/>
    <g>
      <path class="cls-2" d="M553.16,819.28c0-43.57,35.45-79.02,79.01-79.02s79.02,35.45,79.02,79.02-35.45,79.01-79.02,79.01-79.01-35.45-79.01-79.01Z"/>
      <path class="cls-2" d="M836.38,807.55v14.64c0-90.62-31.99-146.13-103.79-204.61l-71.36-67.42V31.59l-89.63,68.22-.1,227.97c0,7.84-.27,15.07-.78,21.76v149.39l-34.26,31.92v-100.31c-6.92,7.06-14.64,13.81-22.97,21.23l-270.18,246.66v138.19l282.07-256.44v51.89l-36.95,31.96c-40.53,34.45-64.1,82.29-64.1,134.33v181.66l30.08-21.22v85.12h30.15v-106.38l32.6-22.99v-136.35l112.63-116.17,113.6,108.5-.55,162.03,24.13,16.74v99.09h30.15v-78.18l39.57,27.45-.31-190.13Z"/>
    </g>
  </g>
</svg>