<?xml version="1.0" encoding="UTF-8"?>
<svg id="Layer_2" data-name="Layer 2" xmlns="http://www.w3.org/2000/svg" viewBox="0 0 1080 1080">
  <defs>
    <style>
      .cls-1 {
        fill: none;
      }

      .cls-1, .cls-2 {
        stroke-width: 0px;
      }
    </style>
  </defs>
  <g id="Boxing">
    <rect class="cls-1" width="1080" height="1080"/>
    <g>
      <g>
        <circle class="cls-2" cx="589.58" cy="263.87" r="79.48"/>
        <g>
          <polygon class="cls-2" points="682.2 895.61 682.2 895.61 681.07 895.61 682.2 895.61"/>
          <path class="cls-2" d="M700.21,527.13l-81.5-31.26-31.95,80.58-105.44-39.87-11.87,31.45,181.46,69.84c85.42,29,139.68,123.77,140.6,217.29l.29,40.46h-109.61c0-9.53-.14-10.14-.14-18.63,0-72.86-10.96-123.09-84.18-152.49l-165.99-63.55-124.44,234.67h-117.3l243.71-460.37c32.95-61.29,89.08-90.94,158.93-64.58l54.04,21.38,28.99-71.46c7.68-19.59,27.11-32,48.11-30.75h0c32.21,1.92,53.63,34.14,42.94,64.59l-66.66,172.71Z"/>
        </g>
      </g>
      <path class="cls-2" d="M887.06,403.27c10.7-30.45-10.72-62.67-42.94-64.59h0c-21-1.25-40.42,11.16-48.11,30.75l-49.02,128.59,90.27,34.31,49.79-129.06Z"/>
    </g>
  </g>
</svg>