<?xml version="1.0" encoding="UTF-8"?>
<svg id="Layer_2" data-name="Layer 2" xmlns="http://www.w3.org/2000/svg" viewBox="0 0 1080 1080">
  <defs>
    <style>
      .cls-1 {
        fill: none;
      }

      .cls-1, .cls-2 {
        stroke-width: 0px;
      }
    </style>
  </defs>
  <g id="Table_tennis" data-name="Table tennis">
    <rect class="cls-1" width="1080" height="1080"/>
    <g>
      <path class="cls-2" d="M553.6,484.07c31.38-30.59,32.03-81.01,1.44-112.39-30.59-31.38-81.01-32.03-112.39-1.44-31.38,30.59-32.03,81.01-1.44,112.39,30.59,31.38,81.01,32.03,112.39,1.44Z"/>
      <path class="cls-2" d="M385.02,341.25c9.27,0,16.79-7.52,16.79-16.79s-7.52-16.79-16.79-16.79-16.79,7.52-16.79,16.79,7.52,16.79,16.79,16.79Z"/>
      <path class="cls-2" d="M727.4,764.61l-86.47-102.47h-160.72l-28.34-34.26,455.69-.02-99.36-99.25h-472.49l-109.81-111.39,14.24-12.65c9.48,5.92,20.52,9.1,32.18,9.09.23,0,.45,0,.68,0,16.61-.18,32.41-6.76,44.49-18.54,25.15-24.52,26.38-64.18,2.75-88.43-23.63-24.24-63.32-24.02-88.47.49-12.08,11.78-19.07,27.41-19.67,44-.38,10.44,1.79,20.47,6.24,29.4l-91.13,80.97,98.19,107c21.48,22.03,60.89,53.56,101.08,53.56h50.48l27.8,37.85,73.93,104.64H75.42v26.73h929.16v-26.73h-277.18ZM238.82,352.16c.35-9.7,4.48-18.87,11.61-25.83,7.48-7.29,17.1-10.96,26.5-10.96s17.66,3.32,24.17,9.99c13.34,13.69,12.32,36.4-2.27,50.62-7.14,6.96-16.41,10.85-26.11,10.95-.13,0-.26,0-.39,0-9.31,0-17.88-3.53-24.16-9.98h0c-6.37-6.53-9.69-15.34-9.34-24.8Z"/>
    </g>
  </g>
</svg>