<?xml version="1.0" encoding="UTF-8"?>
<svg id="Layer_2" data-name="Layer 2" xmlns="http://www.w3.org/2000/svg" viewBox="0 0 1080 1080">
  <defs>
    <style>
      .cls-1 {
        fill: none;
      }

      .cls-1, .cls-2 {
        stroke-width: 0px;
      }
    </style>
  </defs>
  <g id="Rhythmic_gymnastics" data-name="Rhythmic gymnastics">
    <rect class="cls-1" width="1080" height="1080"/>
    <g>
      <path class="cls-2" d="M682.35,354.93c34.03-27.2,39.59-77.02,12.39-111.06-27.2-34.03-77.02-39.59-111.06-12.39-34.03,27.2-39.59,77.02-12.39,111.05,27.2,34.03,77.02,39.59,111.06,12.39Z"/>
      <polygon class="cls-2" points="556.61 495.86 558.7 495.86 558.92 495.76 556.61 495.86"/>
      <path class="cls-2" d="M752.12,495.91h193.74l92.92-100.62h-516.38L242.62,178.89v48.27c-36.18,3.01-71.36,16.22-102.34,38.54-33.3,23.98-60.39,57.44-78.33,96.76-27.37,59.98-27.65,132.83-.76,194.88,21.69,50.04,57.67,85.69,101.31,100.38,38.73,13.04,84.88,17.96,133.73,23.17,67.45,7.2,137.2,14.64,188.93,44.42,26.98,15.53,46.7,35.74,60.28,61.78,15.48,29.69,23.01,67.92,22.36,113.63l28.59.4c1.36-96.63-30.35-162.25-96.96-200.59-56.96-32.79-129.76-40.56-200.16-48.07-47.25-5.04-91.89-9.8-127.65-21.84-35.87-12.07-65.77-42.13-84.2-84.65-23.73-54.74-23.53-118.9.53-171.64,15.88-34.8,39.75-64.34,69.02-85.43,26.07-18.78,55.46-30.07,85.64-33.03v40.77l193.63,150.16c41.75,32.38,93.08,49.95,145.91,49.95h102.57l-35.15,33.38-164.68-.14-242.28-188.8v114.99l572.11,442.43,160.13,1.72-357.17-274.14,134.43-130.28Z"/>
    </g>
  </g>
</svg>