<?xml version="1.0" encoding="UTF-8"?>
<svg id="Layer_2" data-name="Layer 2" xmlns="http://www.w3.org/2000/svg" viewBox="0 0 1080 1080">
  <defs>
    <style>
      .cls-1 {
        fill: none;
      }

      .cls-1, .cls-2 {
        stroke-width: 0px;
      }
    </style>
  </defs>
  <g id="Marathon_swimming" data-name="Marathon swimming">
    <rect class="cls-1" width="1080" height="1080"/>
    <g>
      <g>
        <path class="cls-2" d="M896.34,764.79l44.98-47.46h-245.67c54.13,19.33,114.78,46.67,179.12,49.63,7.52-.18,14.65-.96,21.58-2.17Z"/>
        <path class="cls-2" d="M522.86,718.48l-129.16-149.54c-47.27-54.97-90.94-79.08-171.01-41.52l-84.02,46.46.36,117.63,150.91-76.11,16.62,24.94-133.34,69.9c70.24,3.97,127.29,51.69,224.14,53.77,43.38,0,86.45-28.77,125.5-45.52Z"/>
        <path class="cls-2" d="M565.91,686.77c-43.57,0-79.02-35.45-79.02-79.01s35.45-79.02,79.02-79.02,79.01,35.45,79.01,79.02-35.45,79.01-79.01,79.01Z"/>
      </g>
      <g>
        <path class="cls-2" d="M914.09,492.58l-71.37-157.89c-13.17-29.13-54.66-28.79-67.35.55l-68.93,159.4c32.37-13.74,66.78-24.43,106.85-24.43,30.82,0,64.61,9.61,100.79,22.37Z"/>
        <path class="cls-2" d="M915.74,496.22l-1.65-3.64c-36.19-12.76-69.98-22.37-100.79-22.37-40.08,0-74.49,10.69-106.85,24.43l-2.09,4.84"/>
      </g>
    </g>
  </g>
</svg>