<?xml version="1.0" encoding="UTF-8"?>
<svg id="Layer_2" data-name="Layer 2" xmlns="http://www.w3.org/2000/svg" viewBox="0 0 1080 1080">
  <defs>
    <style>
      .cls-1 {
        fill: none;
      }

      .cls-1, .cls-2 {
        stroke-width: 0px;
      }
    </style>
  </defs>
  <g id="Judo">
    <rect class="cls-1" width="1080" height="1080"/>
    <g>
      <circle class="cls-2" cx="517.29" cy="263.37" r="79.48"/>
      <circle class="cls-2" cx="826.99" cy="816.63" r="79.48" transform="translate(-243.95 1268.16) rotate(-67.5)"/>
      <path class="cls-2" d="M442.44,625.23l-189.45-112.75,17.67-29.7,108.05,64.3,25.28-38.12,37.68-57.88,156.06,94.99,95.3-69.21-268.99-152.48c-100.36-52.72-167.38,21.75-205.92,84.96l-93.5,140.08,97.11,60.3L35.67,879.63l126.38-.99,147.13-218.49,42.38,25.37c60.53,37.29,69.96,81.8,69.96,154.66,0,8.5.12,9.01.12,18.54l-.96,24.27,104.6-.3v-85.52c-5.69-69.07-22.7-135.66-82.84-171.93Z"/>
      <path class="cls-2" d="M970.34,615.01c-28.6-34.89-157.56-190.67-212.49-259.64-15.95-24.13-13.89-39.62-13.32-115.98,0,17.82.1-47.78.1-47.78l-108.25.65-.84,89.74c0,24.63-5.83,82.15,26.39,119.5,28.95,33.56,50.15,59.94,73.71,87.57l-9.01,5.99.06.08-127.27,92.43-147.07-89.52-43.57,66.93,205.53,122.32,130.56-91.15,19.78,28.34-148.85,103.91-.36-.21-55.6,40.36v116.03l308.58-219.49c71.61,75.12,64.73,158.96,64.73,215.27l110.79-.21s10.32-162.78-73.59-265.14Z"/>
    </g>
  </g>
</svg>