<?xml version="1.0" encoding="UTF-8"?>
<svg id="Layer_2" data-name="Layer 2" xmlns="http://www.w3.org/2000/svg" viewBox="0 0 1080 1080">
  <defs>
    <style>
      .cls-1 {
        fill: none;
      }

      .cls-1, .cls-2 {
        stroke-width: 0px;
      }
    </style>
  </defs>
  <g id="Beach_volleyball" data-name="Beach volleyball">
    <rect class="cls-1" width="1080" height="1080"/>
    <g>
      <path class="cls-2" d="M289.8,189.94c37.12,0,67.32-30.2,67.32-67.32s-30.2-67.32-67.32-67.32-67.32,30.2-67.32,67.32,30.2,67.32,67.32,67.32ZM289.8,80.89c23.01,0,41.73,18.72,41.73,41.73s-18.72,41.73-41.73,41.73-41.73-18.72-41.73-41.73,18.72-41.73,41.73-41.73Z"/>
      <circle class="cls-2" cx="564.17" cy="275.47" r="79.48" transform="translate(-29.55 479.61) rotate(-45)"/>
      <path class="cls-2" d="M758.45,847.5v-109.34c-50.52,2.03-157.72-17.09-158.25-114.65l-105.7,72.97c45.67,104.65,154.6,150.02,263.95,151.02Z"/>
      <path class="cls-2" d="M493.54,772.37v-75.68l-106-73.25-.86,114.66c0,132.96,66.86,284.29,261.06,286.6l1.32-108.03c-97.98-.64-155.52-78.68-155.52-144.3Z"/>
      <path class="cls-2" d="M687.17,512.73l170.35-83.69v-108.73l-236.9,109.39L223.37,191.9l1.85,113.25,258.43,162.77.74,36.24-95.5-59.38-1.35,178.66h212.66c0-.22-.01-.44-.01-.66v-100.57c30.98,6.36,57.45,1.4,86.99-9.48Z"/>
      <path class="cls-2" d="M600.29,623.44h-.1s0,.04,0,.07l.09-.07Z"/>
    </g>
  </g>
</svg>