<?xml version="1.0" encoding="UTF-8"?>
<svg id="Layer_2" data-name="Layer 2" xmlns="http://www.w3.org/2000/svg" viewBox="0 0 1080 1080">
  <defs>
    <style>
      .cls-1 {
        fill: none;
      }

      .cls-1, .cls-2 {
        stroke-width: 0px;
      }
    </style>
  </defs>
  <g id="Wrestling">
    <rect class="cls-1" width="1080" height="1080"/>
    <g>
      <circle class="cls-2" cx="417.7" cy="309.34" r="79.48"/>
      <circle class="cls-2" cx="645.53" cy="308.02" r="79.48"/>
      <g>
        <polygon class="cls-2" points="403.77 851.46 403.77 851.46 402.87 851.46 403.77 851.46"/>
        <path class="cls-2" d="M915.44,586.57l74.14-42.5-54.84-101.56c-35.58-70.18-97.86-114.66-204.61-52.39l-190.12,112.6-190.12-112.6c-106.76-62.27-169.03-17.79-204.61,52.39l-54.84,101.56,74.14,42.5L21.89,843.61l120.41.07,109.72-206.44,87.5,52.68c57.38,37.29,64.14,77.07,64.14,149.93,0,8.5.11,2.08.11,11.61l111.25-.31-.23-33.13c-.74-93.52-44.45-177.54-112.3-216.7l-.79-.48-.31-.13-173.97-102.8,17.58-29.75,128.91,76.18,12.4-22.02,153.54,95.31v.19l.15-.09.15.09v-.19l153.54-95.31,12.4,22.02,128.91-76.18,17.58,29.75-173.97,102.8-.31.13-.79.48c-67.86,39.16-111.56,123.18-112.3,216.7l-.23,33.13,111.25.31c0-9.53.11-3.11.11-11.61,0-72.86,6.76-112.64,64.14-149.93l87.5-52.68,109.72,206.44,120.41-.07-142.67-257.04Z"/>
      </g>
    </g>
  </g>
</svg>