<?xml version="1.0" encoding="UTF-8"?>
<svg id="Layer_2" data-name="Layer 2" xmlns="http://www.w3.org/2000/svg" viewBox="0 0 1080 1080">
  <defs>
    <style>
      .cls-1 {
        fill: none;
      }

      .cls-1, .cls-2 {
        stroke-width: 0px;
      }
    </style>
  </defs>
  <g id="Swimming">
    <rect class="cls-1" width="1080" height="1080"/>
    <g>
      <path class="cls-2" d="M896.34,666.67l44.98-47.46h-245.67c54.13,19.33,114.78,46.67,179.12,49.63,7.52-.18,14.65-.96,21.58-2.17Z"/>
      <path class="cls-2" d="M522.86,620.36l-129.16-149.54c-47.27-54.97-90.94-79.08-171.01-41.52l-84.02,46.46.36,117.63,150.91-76.11,16.62,24.94-133.34,69.9c70.24,3.97,127.29,51.69,224.14,53.77,43.38,0,86.45-28.77,125.5-45.52Z"/>
      <path class="cls-2" d="M565.91,588.65c-43.57,0-79.02-35.45-79.02-79.01s35.45-79.02,79.02-79.02,79.01,35.45,79.01,79.02-35.45,79.01-79.01,79.01Z"/>
    </g>
  </g>
</svg>