<?xml version="1.0" encoding="UTF-8"?>
<svg id="Layer_2" data-name="Layer 2" xmlns="http://www.w3.org/2000/svg" viewBox="0 0 1080 1080">
  <defs>
    <style>
      .cls-1 {
        fill: none;
      }

      .cls-1, .cls-2 {
        stroke-width: 0px;
      }
    </style>
  </defs>
  <g id="Weightlifting">
    <rect class="cls-1" width="1080" height="1080"/>
    <g>
      <g>
        <path class="cls-2" d="M484.54,464.89c31.38,30.59,81.8,29.95,112.39-1.44,30.59-31.38,29.95-81.8-1.44-112.39-31.38-30.59-81.8-29.95-112.39,1.44-30.59,31.38-29.95,81.8,1.44,112.39Z"/>
        <polygon class="cls-2" points="984.97 277.58 984.97 277.31 984.97 154.04 952.57 154.04 952.57 277.31 129.03 277.31 129.03 154.04 96.63 154.04 96.63 277.58 62.88 277.58 62.88 309.98 96.63 309.98 96.63 432.49 129.03 432.49 129.03 309.98 208.88 309.98 873.07 309.98 952.57 309.98 952.57 433.57 984.97 433.57 984.97 309.98 1017.12 309.98 1017.12 277.58 984.97 277.58"/>
      </g>
      <path class="cls-2" d="M879.74,858.33c-23.97-90.4-98.56-182.13-213.48-182.13h-6.48v-.05h-108.73v-34.6h108.73v-76.04l213.29-142.28v-113.25l-332.09,218.34-332.09-218.34v113.25l211.68,141.21v113.29c-114.92,0-189.51,91.73-213.48,182.13l-16.95,66.1,112.93-1.53c2.35-9.23,2.61-9.71,4.71-17.94,17.98-70.61,57.26-130.91,129.77-128.74l211.72.24c72.51-2.16,111.8,57.89,129.77,128.5,2.1,8.23,2.36,8.71,4.71,17.94h112.93l-16.95-66.1Z"/>
    </g>
  </g>
</svg>