<?xml version="1.0" encoding="UTF-8"?>
<svg id="Layer_2" data-name="Layer 2" xmlns="http://www.w3.org/2000/svg" viewBox="0 0 1080 1080">
  <defs>
    <style>
      .cls-1 {
        fill: none;
      }

      .cls-1, .cls-2 {
        stroke-width: 0px;
      }
    </style>
  </defs>
  <g id="Surfing">
    <rect class="cls-1" width="1080" height="1080"/>
    <g>
      <path class="cls-2" d="M617.14,228.55c-43.32-4.63-74.8-43.64-70.18-86.96,4.63-43.32,43.64-74.81,86.96-70.18,43.32,4.63,74.8,43.64,70.18,86.96-4.63,43.32-43.64,74.8-86.96,70.18Z"/>
      <path class="cls-2" d="M977.56,986.54l-268.97-178.33-103.6-396.54-47.16-31.49-13.18-44.37,243.82,154.42h179.24l-421.94-263.16c-134.79-77.02-216.46,18.04-216.46,18.04l52.02,191.16c-72.27,16.33-111.11,34.44-139.6,66.27l-124.23-81.72-14.69,22.33,139.12,91.51c-53.12,21.69-98.05,12.82-109.13,12.9l-1.1,25.48s65.02,14.06,136.33-21.21l694.84,457.04,14.69-22.33ZM494.02,516.01l-57.33-239.87,39.43,21.01,106.82,429.83-246.71-162.28c26.76-27.52,68.32-31.27,157.79-48.69Z"/>
    </g>
  </g>
</svg>