<?xml version="1.0" encoding="UTF-8"?>
<svg id="Layer_2" data-name="Layer 2" xmlns="http://www.w3.org/2000/svg" viewBox="0 0 1080 1080">
  <defs>
    <style>
      .cls-1 {
        fill: none;
      }

      .cls-1, .cls-2 {
        stroke-width: 0px;
      }
    </style>
  </defs>
  <g id="Fencing">
    <rect class="cls-1" width="1080" height="1080"/>
    <g>
      <polygon class="cls-2" points="633.07 863.33 633.07 863.33 631.97 863.61 633.07 863.33"/>
      <circle class="cls-2" cx="429.24" cy="295.87" r="79.48" transform="translate(-83.49 390.18) rotate(-45)"/>
      <path class="cls-2" d="M1043.51,358.16h-266.41l18.94-59.32-20.34-3.26-8.75,27.4-319.78,75.59c-69.47,16.42-125.59,67.46-148.52,135.07l-32.57,96.04-229.6,233.67h131.32l143.81-146.74,186.97.31c72.51-2.16,111.8,57.89,129.77,128.5,2.1,8.23,2.36,8.71,4.71,17.94h112.93l-16.95-66.1c-23.97-90.4-98.56-182.13-213.48-182.13l-185.94-.05,11.31-33.39h153.12l33.03-101.05,206.7-53.78-4.66,14.59,20.34,3.26,21.41-67.05h264.15l8.48-19.49Z"/>
    </g>
  </g>
</svg>