<?xml version="1.0" encoding="UTF-8"?>
<svg id="Layer_2" data-name="Layer 2" xmlns="http://www.w3.org/2000/svg" viewBox="0 0 1080 1080">
  <defs>
    <style>
      .cls-1 {
        fill: none;
      }

      .cls-1, .cls-2 {
        stroke-width: 0px;
      }
    </style>
  </defs>
  <g id="Hockey">
    <rect class="cls-1" width="1080" height="1080"/>
    <g>
      <circle class="cls-2" cx="649.24" cy="891.57" r="24.31"/>
      <circle class="cls-2" cx="648.74" cy="241.3" r="77.18" transform="translate(19.38 529.4) rotate(-45)"/>
      <polygon class="cls-2" points="835.99 787.65 800.85 848.05 615.01 593.58 594.15 619.94 807 912.2 860.16 819.72 835.99 787.65"/>
      <polygon class="cls-2" points="497.86 556.09 447.3 556.09 337.47 555.1 219.84 706.92 306.1 769.6 423.81 613.42 467.95 613.42 254.7 907.56 379.79 907.56 593.98 620.19 521.89 522.12 497.86 556.09"/>
      <polygon class="cls-2" points="521.67 521.82 521.89 522.12 522.1 521.82 521.67 521.82"/>
      <path class="cls-2" d="M496.18,430.37l119.23,163.34,93.92-130.67-54.06.56-21.58-32.89,99.1-.08-117.38,163.08,19.65,26.92,139.72-190.04h.48s-140.2,190.04-140.2,190.04l-.05.07v.17s110.05,0,110.05,0l94.97-132.83c45.06-66.13,13.43-147.83-105.18-147.83l-443.82-.11,130.04,181.73h100.62s-67.23-91.46-67.23-91.46h41.74Z"/>
    </g>
  </g>
</svg>