<?xml version="1.0" encoding="UTF-8"?>
<svg id="Layer_2" data-name="Layer 2" xmlns="http://www.w3.org/2000/svg" viewBox="0 0 1080 1080">
  <defs>
    <style>
      .cls-1 {
        fill: none;
      }

      .cls-1, .cls-2 {
        stroke-width: 0px;
      }
    </style>
  </defs>
  <g id="Archery">
    <rect class="cls-1" width="1080" height="1080"/>
    <g>
      <path class="cls-2" d="M340.9,362.04c43.57,0,79.01-35.77,79.01-79.73s-35.45-79.73-79.01-79.73-79.02,35.77-79.02,79.73,35.45,79.73,79.02,79.73Z"/>
      <path class="cls-2" d="M413.69,510.09l-33.61-34.56h365.28c-7.83,63.66-30.31,122.48-63.71,172.49l26.65,26.9c39.33-57.31,65.52-125.46,73.76-199.39h51.1l61.71-88.97-111.75-.83c-6.59-75.68-31.86-145.45-70.25-202.8l-26.71,26.96c32.45,50.03,54.04,110.3,60.35,175.57l-382.45-2.28c-151.17,0-177.65,116.67-178.94,122.79l43.11,44.68,98.47,101.31c-.13.12-.25.24-.38.35l-23.76,25.14c-50.59,61.54-69.65,143.69-69.65,219.62h119.93c0-76.53,19-154.96,106.6-233.73l-181.18-185.35h48.44l257.72,265.11,148.29,153.18,148.49.75-377.93-386.92h-89.59Z"/>
    </g>
  </g>
</svg>