<?xml version="1.0" encoding="UTF-8"?>
<svg id="Layer_2" data-name="Layer 2" xmlns="http://www.w3.org/2000/svg" viewBox="0 0 761.07 733.33">
  <defs>
    <style>
      .cls-1 {
        stroke-width: 0px;
      }
    </style>
  </defs>
  <g id="Breaking">
    <g>
      <circle class="cls-1" cx="416.93" cy="606.06" r="79.48"/>
      <g>
        <polygon class="cls-1" points="465.94 0 465.94 0 464.81 0 465.94 0"/>
        <path class="cls-1" d="M125.21,0l155.32,220.55,101.1-51.38c71.82-37.29,84.18-77.68,84.18-150.54,0-8.5.14-9.1.14-18.63h109.61l-.29,40.46c-.93,93.52-55.68,178.12-140.61,217.29l-180.56,88.76,71.06-.15,77.1-35.66,54.42,87.06h230.9s73.5,98.31,73.5,98.31h-451.35l-.32,237.27h-108.29v-367.21c-.16-48.31-15.39-95.46-42.69-135.32L0,0h125.21Z"/>
      </g>
    </g>
  </g>
</svg>