<?xml version="1.0" encoding="UTF-8"?>
<svg id="Layer_2" data-name="Layer 2" xmlns="http://www.w3.org/2000/svg" viewBox="0 0 1080 1080">
  <defs>
    <style>
      .cls-1 {
        fill: none;
      }

      .cls-1, .cls-2 {
        stroke-width: 0px;
      }
    </style>
  </defs>
  <g id="Golf">
    <rect class="cls-1" width="1080" height="1080"/>
    <g>
      <circle class="cls-2" cx="382.94" cy="273.87" r="79.48" transform="translate(-81.49 350.99) rotate(-45)"/>
      <path class="cls-2" d="M576.09,473.07h95.63c57.33,0,83.61-65.73,49.02-110.21l-113.93-141.06-19.27,17.23-413.11,357.01,55.22,64.96,24.69-20.98-34.4-40.48,141.08-121.92c20.12,28.17,71.71,100.38,97.54,136.27-15.82,85.67-86.61,164.67-159.47,164.67-8.5,0,.83.14-36.37.14v106.91h52.19c77.1-.75,183.2-50.96,227.35-186.05l48.03-151.53,24.24,31.81-28.56,97.97,168.73,207.8h150.91l-329.49-412.54ZM499.95,763.79h0s1.13,0,1.13,0h-1.13ZM471.3,382.3l80.09-69.21,56.98,69.21h-137.07Z"/>
    </g>
  </g>
</svg>