<?xml version="1.0" encoding="UTF-8"?>
<svg id="Layer_2" data-name="Layer 2" xmlns="http://www.w3.org/2000/svg" viewBox="0 0 1080 1080">
  <defs>
    <style>
      .cls-1 {
        fill: none;
      }

      .cls-1, .cls-2 {
        stroke-width: 0px;
      }
    </style>
  </defs>
  <g id="Skateboarding">
    <rect class="cls-1" width="1080" height="1080"/>
    <g>
      <path class="cls-2" d="M828.08,438.74c-43.57,0-79.02-35.45-79.02-79.01s35.45-79.02,79.02-79.02,79.01,35.45,79.01,79.02-35.45,79.01-79.01,79.01Z"/>
      <path class="cls-2" d="M583.19,827.59c-11.24,0-20.38-9.14-20.38-20.38s9.14-20.38,20.38-20.38,20.38,9.14,20.38,20.38-9.14,20.38-20.38,20.38Z"/>
      <path class="cls-2" d="M947.26,827.59c-11.24,0-20.38-9.14-20.38-20.38s9.14-20.38,20.38-20.38,20.38,9.14,20.38,20.38-9.14,20.38-20.38,20.38Z"/>
      <path class="cls-2" d="M642.07,514.95l45.25-.38,17.13,19.77c34.45,40.53,81.95,63.05,133.99,63.05h160.79l-65.47-92.83h-122.56l-113.37-141.56c-58.48-71.8-148.89-110.28-239.51-110.28l-175.49-.31,65.1,93.57h189.71l23.4,33.45H79.05l68.22,89.63,227.97.1c74.58,0,109.73,24.02,140.05,58.01l181.88,209.05h-176.6v33.45h480.39v-33.45h-165.6l-193.28-221.27Z"/>
    </g>
  </g>
</svg>