<?xml version="1.0" encoding="UTF-8"?>
<svg id="Layer_2" data-name="Layer 2" xmlns="http://www.w3.org/2000/svg" viewBox="0 0 1080 1080">
  <defs>
    <style>
      .cls-1 {
        fill: none;
      }

      .cls-1, .cls-2 {
        stroke-width: 0px;
      }
    </style>
  </defs>
  <g id="Triathlon">
    <rect class="cls-1" width="1080" height="1080"/>
    <g>
      <path class="cls-2" d="M661.19,748.68c0-25.7-20.91-46.61-46.61-46.61s-46.61,20.91-46.61,46.61,20.91,46.61,46.61,46.61,46.61-20.91,46.61-46.61Z"/>
      <path class="cls-2" d="M594.58,821.3l-80.07-103.07c-20.17-23.94-50.01-27.35-76.13-10.11l-62.24,42.25v72.15l90.27-65.33,52.38,64.1h-24.68l-30.8-37.48-54.24,39.16c-20.72,15.46-32.92,43.15-32.92,68.99v87.46l166.36-117.96c16.06,14.77,20.41,18.26,48.97,18.26l144.59-.39-54.22-58.04h-87.26Z"/>
      <path class="cls-2" d="M696.65,223.29c31.93,11.4,67.7,27.53,105.65,29.27,4.44-.11,8.64-.57,12.73-1.28l26.53-27.99h-144.9Z"/>
      <path class="cls-2" d="M457.35,163.17l9.8,14.71-78.65,41.23c41.43,2.34,75.08,30.49,132.2,31.71,25.59,0,50.99-16.97,74.02-26.85l-76.18-88.21c-27.88-32.42-53.64-46.64-100.86-24.49l-49.56,27.4.21,69.38,89.01-44.89Z"/>
      <path class="cls-2" d="M620.13,205.27c25.7,0,46.61-20.91,46.61-46.61s-20.91-46.61-46.61-46.61-46.61,20.91-46.61,46.61,20.91,46.61,46.61,46.61Z"/>
      <path class="cls-2" d="M604.94,389.57c1.48,23.22,20.24,41.98,43.46,43.46,28.1,1.8,51.35-21.46,49.56-49.56-1.49-23.22-20.24-41.98-43.46-43.46-28.09-1.79-51.35,21.46-49.55,49.55Z"/>
      <path class="cls-2" d="M694.96,507.42l28.51-56.07h-107.06l-35.76-52.74c-17.88-25.65-41.12-29.44-67.5-29.44h-45.48c-57.14,0-76.41,31.19-76.41,80.75v51.7c-13.68-6.28-28.88-9.79-44.89-9.79-59.52,0-107.93,48.42-107.93,107.94,0,1.22.03,2.44.07,3.66h16.06c-.05-1.21-.08-2.43-.08-3.66,0-50.66,41.22-91.88,91.88-91.88,16.3,0,31.61,4.27,44.89,11.74v83.74h46.91s0,.04,0,.06h16.34v.16l.14-.16h91.74c-.06-1.41-.1-2.82-.1-4.24,0-19.45,6.08-37.5,16.42-52.36,1.08-1.55,2.2-3.07,3.37-4.55,2.61-3.3,5.45-6.42,8.48-9.34l-.77-1.06-8.76-12-45.71-62.61h.06s-.69-.93-.69-.93l24.38.13,37.65,51.27.06.08,9.53,12.97c13.95-8.55,30.34-13.48,47.86-13.48,50.66,0,91.88,41.22,91.88,91.88,0,1.42-.04,2.83-.1,4.24h16.06c.05-1.41.09-2.82.09-4.24,0-38.7-20.48-72.7-51.16-91.76ZM454.71,603.36h-.19v-142.03l58.14,73.66-57.95,68.38Z"/>
      <path class="cls-2" d="M588.01,522.24c-.58.38-1.15.76-1.72,1.15-.13.09-.26.18-.38.27-.54.37-1.07.75-1.6,1.14-.13.1-.26.19-.39.29-.53.39-1.06.79-1.59,1.19-.11.09-.23.17-.34.26-.57.44-1.13.89-1.69,1.34-.06.05-.12.1-.18.15-1.91,1.56-3.76,3.2-5.54,4.91l51.26,70.48,4.76,6.55h25.65l-4.84-6.55-61.09-82.64c-.68.42-1.36.85-2.03,1.28-.09.06-.19.12-.28.19Z"/>
    </g>
  </g>
</svg>