<?xml version="1.0" encoding="UTF-8"?>
<svg id="Layer_2" data-name="Layer 2" xmlns="http://www.w3.org/2000/svg" viewBox="0 0 1080 1080">
  <defs>
    <style>
      .cls-1 {
        fill: none;
      }

      .cls-1, .cls-2 {
        stroke-width: 0px;
      }
    </style>
  </defs>
  <g id="Road_cycling" data-name="Road cycling">
    <rect class="cls-1" width="1080" height="1080"/>
    <g>
      <path class="cls-2" d="M475.51,674.87h.01s-.01-.02-.01-.03v.03Z"/>
      <g>
        <path class="cls-2" d="M804.68,386.1c47.63,3.05,87.07-36.39,84.02-84.02-2.52-39.37-34.32-71.17-73.69-73.68-47.63-3.04-87.05,36.39-84.01,84.01,2.52,39.37,34.31,71.17,73.68,73.69Z"/>
        <path class="cls-2" d="M883.61,512.22l48.34-95.05h-181.5l-60.63-89.42c-30.31-43.49-69.72-49.92-114.43-49.92h-77.1c-96.87,0-129.54,52.88-129.54,136.9v87.65c-23.19-10.65-48.97-16.6-76.11-16.6-100.9,0-182.99,82.09-182.99,182.99s82.09,182.99,182.99,182.99,179.65-78.81,182.88-176.9h-.01v-.03s.01.02.01.03h.46v-240.81l98.57,124.88-98.25,115.93h128.21c3.74,97.63,84.31,175.91,182.84,175.91s182.99-82.09,182.99-182.99c0-65.61-34.72-123.26-86.74-155.56ZM292.64,824.55c-85.9,0-155.78-69.88-155.78-155.78s69.88-155.78,155.78-155.78c27.63,0,53.59,7.24,76.11,19.9v141.97h79.53c-3.21,83.08-71.79,149.68-155.65,149.68ZM787.36,823.56c-85.9,0-155.78-69.88-155.78-155.78,0-32.97,10.3-63.57,27.85-88.77,1.83-2.63,3.73-5.2,5.72-7.71,4.43-5.6,9.24-10.89,14.38-15.83l-1.31-1.8-14.85-20.34-77.49-106.15h.1s-1.17-1.58-1.17-1.58l41.34.22,63.83,86.92.09.13,16.15,21.99c23.65-14.49,51.43-22.85,81.14-22.85,85.9,0,155.78,69.88,155.78,155.78s-69.88,155.78-155.78,155.78Z"/>
        <path class="cls-2" d="M702.77,537.03c-.16.1-.32.21-.48.32-.98.64-1.95,1.29-2.91,1.95-.22.15-.43.3-.65.45-.91.63-1.82,1.28-2.71,1.93-.22.16-.44.32-.67.49-.91.66-1.8,1.34-2.69,2.02-.19.15-.38.29-.58.44-.96.75-1.92,1.5-2.86,2.27-.1.08-.21.17-.31.25-3.24,2.65-6.37,5.42-9.39,8.32l94.98,130.6h43.49l-111.78-151.21c-1.16.71-2.3,1.43-3.44,2.17Z"/>
      </g>
      <polygon class="cls-2" points="475.98 675.25 476.3 674.87 475.98 674.87 475.98 675.25"/>
    </g>
  </g>
</svg>