<?xml version="1.0" encoding="UTF-8"?>
<svg id="Layer_2" data-name="Layer 2" xmlns="http://www.w3.org/2000/svg" viewBox="0 0 1080 1080">
  <defs>
    <style>
      .cls-1 {
        fill: none;
      }

      .cls-1, .cls-2 {
        stroke-width: 0px;
      }
    </style>
  </defs>
  <g id="Cycling_track" data-name="Cycling track">
    <rect class="cls-1" width="1080" height="1080"/>
    <g>
      <path class="cls-2" d="M475.75,674.87h.01s0-.02-.01-.03v.03Z"/>
      <path class="cls-2" d="M475.74,675.25l.32-.38h-.31c0,.13-.01.25-.02.38Z"/>
      <path class="cls-2" d="M883.38,512.22l48.34-95.05h-181.5l-60.63-89.42c-30.31-43.49-69.72-49.92-114.43-49.92h-85.85c-96.87,0-120.31,52.88-120.31,136.9v87.65c-23.19-10.65-48.97-16.6-76.11-16.6-100.9,0-182.99,82.09-182.99,182.99s82.09,182.99,182.99,182.99,179.44-78.6,182.86-176.51h0s0-241.19,0-241.19l98.57,124.88-98.25,115.93h128.21c3.74,97.63,84.31,175.91,182.84,175.91s182.99-82.09,182.99-182.99c0-65.61-34.72-123.26-86.74-155.56ZM292.82,698.12c-16.21,0-29.35-13.14-29.35-29.35s13.14-29.35,29.35-29.35,29.35,13.14,29.35,29.35-13.14,29.35-29.35,29.35ZM787.12,823.56c-85.9,0-155.78-69.88-155.78-155.78,0-32.97,10.3-63.57,27.85-88.77,1.83-2.63,3.73-5.2,5.72-7.71,4.43-5.6,9.24-10.89,14.38-15.83l-1.31-1.8-14.85-20.34-77.49-106.15h.1s-1.17-1.47-1.17-1.47h43.79l77.63,109.14c23.65-14.49,51.43-22.85,81.14-22.85,85.9,0,155.78,69.88,155.78,155.78s-69.88,155.78-155.78,155.78Z"/>
      <path class="cls-2" d="M702.54,537.03c-.16.1-.32.21-.48.32-.98.64-1.95,1.29-2.91,1.95-.22.15-.43.3-.65.45-.91.63-1.82,1.28-2.71,1.93-.22.16-.44.32-.67.49-.91.66-1.8,1.34-2.69,2.02-.19.15-.38.29-.58.44-.96.75-1.92,1.5-2.86,2.27-.1.08-.21.17-.31.25-3.24,2.65-6.37,5.42-9.39,8.32l94.98,130.6h43.49l-111.78-151.21c-1.16.71-2.3,1.43-3.44,2.17Z"/>
      <path class="cls-2" d="M813.29,386.19c40.22-1.84,72.95-34.2,75.21-74.4,2.54-45.31-33.34-83.03-78-83.52v-.02h-.8s-.06,0-.09,0-.06,0-.09,0h-145.71l83.13,127.06c15.15,19.71,39.36,32.12,66.35,30.89Z"/>
    </g>
  </g>
</svg>