<?xml version="1.0" encoding="UTF-8"?>
<svg id="Layer_2" data-name="Layer 2" xmlns="http://www.w3.org/2000/svg" viewBox="0 0 1080 1080">
  <defs>
    <style>
      .cls-1 {
        fill: none;
      }

      .cls-1, .cls-2 {
        stroke-width: 0px;
      }
    </style>
  </defs>
  <g id="Shooting">
    <rect class="cls-1" width="1080" height="1080"/>
    <g>
      <path class="cls-2" d="M305.48,352.01c-43.57,0-79.02-35.45-79.02-79.01s35.45-79.02,79.02-79.02,79.01,35.45,79.01,79.02-35.45,79.01-79.01,79.01Z"/>
      <path class="cls-2" d="M930.29,375.51v-28.99H387.64v25.49l-58.99.12c-151.17,0-177.65,116.67-178.94,122.79l43.11,44.68,98.47,101.31c-.13.12-.25.24-.38.35l39.92,41.16-50-1.84-13.68-14.18c-50.59,61.54-69.65,143.69-69.65,219.62h119.93c0-76.53,19-154.96,106.6-233.73l-181.18-185.35h48.44l257.72,265.11,148.29,153.18,148.49.75-377.93-386.92h-89.59l-33.61-34.56h333.82l61.71-88.97h190.09Z"/>
    </g>
  </g>
</svg>