<?xml version="1.0" encoding="UTF-8"?>
<svg id="Layer_2" data-name="Layer 2" xmlns="http://www.w3.org/2000/svg" viewBox="0 0 1080 1080">
  <defs>
    <style>
      .cls-1 {
        fill: none;
      }

      .cls-1, .cls-2 {
        stroke-width: 0px;
      }
    </style>
  </defs>
  <g id="Trampoline">
    <rect class="cls-1" width="1080" height="1080"/>
    <g>
      <g>
        <circle class="cls-2" cx="498.21" cy="242.37" r="79.48"/>
        <path class="cls-2" d="M253.83,383.41l-33.65,69.57h192.37l38.22,34.56h-247.31l-.55,1.13h0c0,61.85,50.14,112,112,112h488.69l132.18-110.79-314.11-1.95-186.15-152.77c-61.15-50.19-153.5-25.66-181.69,48.26Z"/>
      </g>
      <path class="cls-2" d="M296.88,820.43c77.93-17.65,160.62-26.6,245.76-26.6,168.05,0,325.51,35.07,443.39,98.76,13.73,7.42,26.72,15.12,38.98,23.1v-31.57c-8.47-5.14-17.22-10.16-26.28-15.05-121.71-65.76-283.69-101.97-456.09-101.97s-335.6,36.2-458.68,101.94c-10.01,5.35-19.67,10.85-28.97,16.49v31.55c13.03-8.46,26.89-16.62,41.57-24.46,57.85-30.9,125.25-55.19,200.32-72.19Z"/>
    </g>
  </g>
</svg>