<?xml version="1.0" encoding="UTF-8"?>
<svg id="Layer_2" data-name="Layer 2" xmlns="http://www.w3.org/2000/svg" viewBox="0 0 1080 1080">
  <defs>
    <style>
      .cls-1 {
        fill: none;
      }

      .cls-1, .cls-2 {
        stroke-width: 0px;
      }
    </style>
  </defs>
  <g id="Sailing">
    <rect class="cls-1" width="1080" height="1080"/>
    <g>
      <path class="cls-2" d="M140.55,489.16c32.69,0,59.28-26.59,59.28-59.28s-26.59-59.28-59.28-59.28-59.28,26.59-59.28,59.28,26.59,59.28,59.28,59.28Z"/>
      <path class="cls-2" d="M770.18,842.22c.75-.29,1.51-.56,2.25-.86,53.71-21.23,101.33-53.6,141.55-96.19,37.15-39.34,65.48-84.79,84.21-135.08,18.09-48.57,26.51-99.58,25.01-151.61-1.49-52.03-12.82-102.48-33.67-149.93-21.59-49.13-52.48-92.88-91.82-130.03l-10.26-9.69-453.27,535.58-92.77-91.36,44.58-43.5h123.04l60.71-65.08-299.9-2.49-41.88.09c-115.12.14-131.28,87.8-132.19,92.15l134.38,129.64s-79.04,34.81-92.93,113.86l-100.36-.72s11.55,44.73,56.45,69.97c82.55-14.06,105.31-48.62,189.13-48.62s129.58,51.76,240.92,52.83c101.18-1.07,160.65-48.83,264.68-48.83,66.55,0,121.53,34.6,203.1,46.49,40.06-26.34,51.98-64.67,51.98-64.67l-272.96-1.95ZM229.3,838.36c18.46-43.87,90.32-78.38,112.62-85.97l-174.87-183.02h34.39l184.77,191.71-65.95,77.93-90.96-.65ZM654.18,841.39l-299.11-2.14L889.46,207.84c66.41,67.5,104.3,156.23,107.03,251.4,2.87,99.89-33.33,194.92-101.94,267.58-37.51,39.73-81.9,69.91-131.94,89.69-34.69,13.71-71,22.04-108.42,24.89Z"/>
    </g>
  </g>
</svg>