<?xml version="1.0" encoding="UTF-8"?>
<svg id="Layer_2" data-name="Layer 2" xmlns="http://www.w3.org/2000/svg" viewBox="0 0 1080 1080">
  <defs>
    <style>
      .cls-1 {
        fill: none;
      }

      .cls-1, .cls-2 {
        stroke-width: 0px;
      }
    </style>
  </defs>
  <g id="BMX_freestyle" data-name="BMX freestyle">
    <rect class="cls-1" width="1080" height="1080"/>
    <g>
      <path class="cls-2" d="M963.77,521.5c-23.21-25.5-54.97-40.43-89.41-42.05-33.58-1.58-65.78,9.69-91,31.75v-91.46l-174.9-154.2c-61.22-45.26-138.07-44.41-189.13,10.54L82.59,682.02l78.03,72.22,199.4-238.29,129.82,57.99c71.17,31.85,63.92,59.09,63.92,107.41l-.44,54.56c-4.29-.63-8.63-1.06-13.01-1.26-34.44-1.61-67.46,10.28-92.96,33.49-25.5,23.21-40.43,54.97-42.05,89.41-1.62,34.45,10.28,67.46,33.49,92.96,23.21,25.5,54.97,40.43,89.41,42.05,2.07.1,4.14.15,6.2.15,32.19,0,62.8-11.82,86.76-33.64,32.48-29.57,46.37-72.03,41-112.59l-.97-131.84c0-105.51-8.6-170.46-108.22-226.44l-153.58-69.77v-39.87l156.56,73.7,46.97-56.54,159.87,138.22c-14.11,19.91-22.28,43.45-23.45,68.41-1.62,34.45,10.28,67.46,33.49,92.96,25.44,27.94,60.42,42.13,95.52,42.13,31.03,0,62.15-11.09,86.85-33.57,25.5-23.21,40.43-54.97,42.05-89.41,1.62-34.45-10.28-67.46-33.49-92.96ZM609.6,795.03c18.32,20.12,27.71,46.18,26.43,73.36-1.28,27.18-13.06,52.24-33.18,70.56-20.12,18.32-46.18,27.72-73.36,26.43-27.18-1.28-52.24-13.06-70.56-33.18-18.32-20.12-27.71-46.18-26.43-73.36,1.28-27.18,13.06-52.24,33.18-70.56,18.92-17.22,43.07-26.55,68.47-26.55,1.62,0,3.26.04,4.89.11,27.18,1.28,52.24,13.06,70.56,33.18ZM970.08,613.18c-1.28,27.18-13.06,52.24-33.18,70.56-41.54,37.82-106.1,34.79-143.92-6.75-18.32-20.12-27.71-46.18-26.43-73.36.88-18.78,6.78-36.55,16.98-51.78l63.5,54.91,45.46.8-89.46-77.35c18.39-15.38,41.22-23.68,65.17-23.68,1.62,0,3.26.04,4.89.11,27.18,1.28,52.24,13.06,70.56,33.18h0c18.32,20.12,27.71,46.18,26.43,73.36Z"/>
      <path class="cls-2" d="M719.74,221.63c30.27-31.69,29.12-82.1-2.57-112.37-31.69-30.27-82.1-29.12-112.37,2.57-30.27,31.69-29.12,82.1,2.57,112.37s82.1,29.12,112.37-2.57Z"/>
    </g>
  </g>
</svg>