<?xml version="1.0" encoding="UTF-8"?>
<svg id="Layer_2" data-name="Layer 2" xmlns="http://www.w3.org/2000/svg" viewBox="0 0 1080 1080">
  <defs>
    <style>
      .cls-1 {
        fill: none;
      }

      .cls-1, .cls-2 {
        stroke-width: 0px;
      }
    </style>
  </defs>
  <g id="Tennis">
    <rect class="cls-1" width="1080" height="1080"/>
    <g>
      <circle class="cls-2" cx="464.69" cy="406.94" r="79.48" transform="translate(-151.65 447.77) rotate(-45)"/>
      <circle class="cls-2" cx="773.8" cy="104.88" r="24.17"/>
      <path class="cls-2" d="M937.67,944.11c-.93-93.52-45.98-180.71-140.6-217.29l-182.38-83.02v-35.6l59.54,25.98v-149.51l144.21-299.52h-99.55s-117.92,226.47-120.04,230.16c-37.96,65.91-103.97,108.57-185.02,108.57l-233.36.19,63.64-99.88c4.82,1.28,9.86,1.93,15.06,1.93,9.59,0,19.73-2.19,29.99-6.57,20.33-8.69,39.05-25.22,52.71-46.57,13.66-21.34,20.84-45.27,20.21-67.37-.68-24.01-10.33-43.16-27.18-53.95-16.85-10.78-38.29-11.52-60.37-2.09-20.33,8.69-39.05,25.23-52.71,46.57-13.66,21.34-20.84,45.27-20.21,67.37.5,17.49,5.77,32.39,15.1,43.37l-74.67,117.19,1.4.89,87.06,81.88,234.19-.09v95.37l-173.28,293.91h118.92l150.4-255.69,183.3,75.05c73.22,29.4,84.18,77.68,84.18,150.54,0,8.5.14,23.83.14,33.36l109.61-.3-.29-54.88ZM244.34,310.55c10.8-16.87,25.25-29.79,40.7-36.4,13.7-5.85,26.29-5.85,35.46.02,20.33,13.01,19.81,51.66-1.14,84.39-10.8,16.87-25.25,29.79-40.7,36.4-13.7,5.85-26.29,5.85-35.46-.02-20.33-13.02-19.81-51.66,1.14-84.39Z"/>
    </g>
  </g>
</svg>