<?xml version="1.0" encoding="UTF-8"?>
<svg id="Layer_2" data-name="Layer 2" xmlns="http://www.w3.org/2000/svg" viewBox="0 0 1080 1080">
  <defs>
    <style>
      .cls-1 {
        fill: none;
      }

      .cls-1, .cls-2 {
        stroke-width: 0px;
      }
    </style>
  </defs>
  <g id="Basketball">
    <rect class="cls-1" width="1080" height="1080"/>
    <g>
      <g>
        <polygon class="cls-2" points="970.15 117.17 970.15 292.67 821.01 292.67 821.01 321.25 970.15 321.25 970.15 370.22 998.74 370.22 998.74 117.17 970.15 117.17"/>
        <path class="cls-2" d="M587.32,485.45c36.6,23.64,85.61,13.09,109.24-23.51,23.64-36.6,13.09-85.61-23.51-109.24-36.6-23.64-85.61-13.09-109.24,23.51-23.64,36.6-13.09,85.61,23.51,109.25Z"/>
      </g>
      <path class="cls-2" d="M615.23,664.6l36.94-34.82,171.59,63.85,115.92-45.14-427.54-164.42-54.72-133.66c11.61,5.24,23.94,7.76,36.17,7.75,28.89-.07,57.2-14.29,74.01-40.32,26.38-40.85,14.61-95.55-26.24-121.94-14.78-9.54-31.36-14.07-47.76-14.06-28.89.07-57.2,14.29-74.01,40.32-9.56,14.8-14.08,31.41-14.06,47.84h-84.82l74.14,180.47c29.76,85.18,58.15,107.29,117.29,127.2l63.5,23.63-21.47,23.3-88.85-31.35L81.26,959.52l136.85,3.31,216.76-206.54,155.6.39c85.47,6,128.19,27.85,170.36,87.26,4.92,6.93,4.67,6.86,53.48,70.06l81.52-60.38-66.71-87.93c-45.52-62.8-126.85-101.1-213.9-101.1ZM449.84,241.71c9.94-15.39,26.67-23.79,43.75-23.84v-.04c9.69,0,19.49,2.69,28.22,8.33,24.17,15.61,31.13,47.97,15.52,72.14-9.94,15.39-26.67,23.79-43.75,23.84v.04c-9.69,0-19.49-2.69-28.22-8.33-24.17-15.61-31.13-47.97-15.52-72.14Z"/>
    </g>
  </g>
</svg>