<?xml version="1.0" encoding="UTF-8"?>
<svg id="Layer_2" data-name="Layer 2" xmlns="http://www.w3.org/2000/svg" viewBox="0 0 1080 1080">
  <defs>
    <style>
      .cls-1 {
        fill: none;
      }

      .cls-1, .cls-2 {
        stroke-width: 0px;
      }
    </style>
  </defs>
  <g id="BMX_racing" data-name="BMX racing">
    <rect class="cls-1" width="1080" height="1080"/>
    <g>
      <path class="cls-2" d="M531.71,243.42l1.25,1.26v-.18c15.43,12.87,35.73,19.92,57.29,18.09,18.92-1.61,35.73-9.81,48.37-22.13l14.26,18.28,27.27,37.38,14.71-9.59-35.2-123.81c-9.96-35.9-44.39-60.86-82.83-57.59-18.04,1.54-34.14,9.06-46.56,20.44v-.32s-53.97,51.28-53.97,51.28l47.51,58.98c2.45,2.82,5.09,5.46,7.9,7.91Z"/>
      <path class="cls-2" d="M837.43,577.45c-26.4-66.11-101.67-98.41-167.77-72-5.29,2.11-10.39,4.55-15.28,7.28v-69.56l-148.93-189.79c-37.83-42.46-124.55-53.38-160.13,5.93l-57.03,102.49c-27.87,50.08-10.03,113.27,39.92,141.38l76.25,42.91v38.76l-56.71-31.93v164.85c-9.18,1.08-18.32,3.15-27.27,6.23-32.6,11.23-58.88,34.48-73.99,65.48-15.11,31-17.25,66.02-6.02,98.62,18.4,53.43,68.59,87.06,122.17,87.06,13.91,0,28.06-2.27,41.93-7.05,67.3-23.18,103.2-96.8,80.01-164.1-4.13-11.99-9.89-23.11-17.05-33.15h75.45l32.01-65.89c8.94-16.11,14.41-33.35,16.7-50.83,1.49,6.44,3.47,12.81,5.97,19.07,12.79,32.02,37.28,57.15,68.97,70.75,16.36,7.02,33.61,10.54,50.89,10.54,16.2,0,32.41-3.09,47.91-9.28,66.11-26.4,98.41-101.66,72.01-167.77ZM395.7,942.39c-53.11,18.3-111.21-10.03-129.51-63.15-8.86-25.73-7.18-53.37,4.75-77.83,11.93-24.46,32.67-42.81,58.39-51.68,10.88-3.75,22.09-5.61,33.27-5.61,15.26,0,30.45,3.47,44.57,10.36,24.46,11.93,42.81,32.66,51.68,58.39,18.29,53.11-10.04,111.21-63.15,129.51ZM481.98,663.6l-34.52,73.56v-165.8l7.57,4.27c31.81,18.21,43.75,49.42,26.94,87.97ZM589.99,605.13c-8.47-42.49-34.79-81.46-74.65-103.64l-149.99-84.02v-39.98l112.47,63.92,28.56-56.23,117.4,151.35c-10.32,10.91-18.75,23.68-24.85,37.89-4.28,9.97-7.25,20.27-8.92,30.71ZM755.33,719.95c-25.27,10.09-52.96,9.74-77.97-.99-25.01-10.73-44.34-30.56-54.43-55.83-10.09-25.27-9.74-52.96.99-77.97,5.52-12.86,13.46-24.2,23.29-33.57l58.05,84.24h34.51l-69.82-100.56c3.17-1.67,6.43-3.19,9.81-4.54,12.35-4.93,25.11-7.27,37.66-7.27,40.47,0,78.84,24.28,94.74,64.1,20.83,52.17-4.66,111.57-56.82,132.4Z"/>
    </g>
  </g>
</svg>