<?xml version="1.0" encoding="UTF-8"?>
<svg id="Layer_2" data-name="Layer 2" xmlns="http://www.w3.org/2000/svg" viewBox="0 0 1080 1080">
  <defs>
    <style>
      .cls-1 {
        fill: none;
      }

      .cls-1, .cls-2 {
        stroke-width: 0px;
      }
    </style>
  </defs>
  <g id="Badminton">
    <rect class="cls-1" width="1080" height="1080"/>
    <g>
      <circle class="cls-2" cx="386.68" cy="381.82" r="79.48"/>
      <polygon class="cls-2" points="406.41 153.84 437.28 209.04 346.74 225.79 406.41 153.84"/>
      <g>
        <polygon class="cls-2" points="650.81 611.86 643.3 611.93 650.73 611.94 650.81 611.86"/>
        <path class="cls-2" d="M590.84,462.93l242.18-236.94h-139.18l-362,355.17h-147.79l.11-147.34c12.63-4.17,24.04-13.23,33.1-26.54,11.72-17.22,18.18-39.84,18.18-63.69s-6.46-46.47-18.18-63.69c-12.8-18.8-30.3-29.15-49.29-29.15s-36.49,10.35-49.29,29.15c-11.72,17.22-18.18,39.84-18.18,63.69s6.46,46.47,18.18,63.69c9.05,13.29,20.46,22.36,33.07,26.53l-.17,240.14h16.39s0,.03,0,.03l145.11.24c30.77,0,52.87-.88,76.68-23.49l39.21-38.88h46.88l-71.33,71.01c-57.99,57.99-96.65,97.36-97.42,174.91l-.29,67.73,109.61.31c0-37.2.14-37.72.14-46.21,0-72.86,4.92-79.82,65.88-140.12l128.17-127.29h.17s.33-.33.33-.33l47.19.09-46.66,46.66,226.85,267.55h141.02l-388.66-463.23ZM167.97,409.71c-22.08,0-40.74-30.27-40.74-66.11s18.65-66.11,40.74-66.11,40.73,30.27,40.73,66.11-18.65,66.11-40.73,66.11Z"/>
        <polygon class="cls-2" points="611.11 611.86 610.78 612.19 643.3 611.93 611.11 611.86"/>
      </g>
    </g>
  </g>
</svg>