<?xml version="1.0" encoding="UTF-8"?>
<svg id="Layer_2" data-name="Layer 2" xmlns="http://www.w3.org/2000/svg" viewBox="0 0 1080 1080">
  <defs>
    <style>
      .cls-1 {
        fill: none;
      }

      .cls-1, .cls-2 {
        stroke-width: 0px;
      }
    </style>
  </defs>
  <g id="Football">
    <rect class="cls-1" width="1080" height="1080"/>
    <g>
      <path class="cls-2" d="M711.2,332.38l-486.21-.11,89.76,93.18,244.59-.17-.35.38h.46l-.96.54-29.61,32.46-98.85-.38-173.04,235.11,112.09,1.68,132.77-172.06h42.19l-284.26,376.71h130.48l356.03-473.22s28.81.08,42.12-.34l-143.23,192.29h100.33l70.96-94.09c71.17-83.91,48.06-191.99-105.27-191.99Z"/>
      <circle class="cls-2" cx="659.2" cy="235.4" r="77.18"/>
      <path class="cls-2" d="M640.58,759.52c-14.78-9.54-31.36-14.07-47.76-14.06-28.89.07-57.2,14.29-74.01,40.32-26.38,40.85-14.61,95.55,26.24,121.94,14.78,9.54,31.36,14.07,47.76,14.06,28.89-.07,57.2-14.29,74.01-40.32,26.38-40.85,14.61-95.55-26.24-121.94ZM636.57,861.91c-9.94,15.39-26.67,23.79-43.75,23.84v.04c-9.69,0-19.49-2.69-28.22-8.33-24.17-15.61-31.13-47.97-15.52-72.14,9.94-15.39,26.67-23.79,43.75-23.84v-.04c9.69,0,19.49,2.69,28.22,8.33,24.17,15.61,31.13,47.97,15.52,72.14Z"/>
    </g>
  </g>
</svg>