<?xml version="1.0" encoding="UTF-8"?>
<svg id="Layer_2" data-name="Layer 2" xmlns="http://www.w3.org/2000/svg" viewBox="0 0 1080 1080">
  <defs>
    <style>
      .cls-1 {
        fill: none;
      }

      .cls-1, .cls-2 {
        stroke-width: 0px;
      }
    </style>
  </defs>
  <g id="Taekwondo">
    <rect class="cls-1" width="1080" height="1080"/>
    <g>
      <circle class="cls-2" cx="594.14" cy="273.07" r="79.48"/>
      <g>
        <polygon class="cls-2" points="419.99 514.24 407.37 539.98 407.4 540 420 514.25 419.99 514.24"/>
        <path class="cls-2" d="M866.57,465.57l66.2-91.29h-467.05c-67.21.38-132.9,42.62-164.3,102.04l-47.45,94.23,84.68,41.85-191.43,274h128.5l157.17-227.87,103.86,50.74c71.82,37.29,84.18,85.6,84.18,158.46,0,8.5.14,9.14.14,18.67h109.61l-.29-40.49c-.84-84.97-45.77-170.57-118.08-205.43l-204.91-100.47h0s-.03-.03-.03-.03l12.62-25.74,2.07-4.23,136.75,66.86,76.86-111.31h230.9Z"/>
        <polygon class="cls-2" points="407.4 540.01 417.79 545.09 407.4 540 407.4 540.01"/>
      </g>
    </g>
  </g>
</svg>